<svg width="530" height="530" viewBox="0 0 1200 1200" fill="none" xmlns="http://www.w3.org/2000/svg">
<rect width="1200" height="1200" fill="white"/>
<rect x="966.53" y="1138.64" width="117" height="177" transform="rotate(-120 966.53 1138.64)" stroke="black" stroke-width="3"/>
<text fill="black" xml:space="preserve" style="white-space: pre" font-family="Inter" font-size="50" font-weight="bold" letter-spacing="0em"><tspan x="960.966" y="901.826">16</tspan></text>
<rect x="805.972" y="680.549" width="117" height="177" transform="rotate(-30 805.972 680.549)" stroke="black" stroke-width="3"/>
<text fill="black" xml:space="preserve" style="white-space: pre" font-family="Inter" font-size="50" font-weight="bold" letter-spacing="0em"><tspan x="984.895" y="1061.73">15</tspan></text>
<rect x="895.972" y="836.434" width="117" height="177" transform="rotate(-30 895.972 836.434)" stroke="black" stroke-width="3"/>
<text fill="black" xml:space="preserve" style="white-space: pre" font-family="Inter" font-size="50" font-weight="bold" letter-spacing="0em"><tspan x="857.104" y="961.826">14</tspan></text>
<rect x="792.049" y="896.434" width="117" height="177" transform="rotate(-30 792.049 896.434)" stroke="black" stroke-width="3"/>
<text fill="black" xml:space="preserve" style="white-space: pre" font-family="Inter" font-size="50" font-weight="bold" letter-spacing="0em"><tspan x="767.068" y="805.941">13</tspan></text>
<rect x="702.049" y="740.549" width="117" height="177" transform="rotate(-30 702.049 740.549)" stroke="black" stroke-width="3"/>
<text fill="black" xml:space="preserve" style="white-space: pre" font-family="Inter" font-size="50" font-weight="bold" letter-spacing="0em"><tspan x="884.088" y="195.941">5</tspan></text>
<rect x="966.53" y="588.643" width="117" height="177" transform="rotate(-120 966.53 588.643)" stroke="black" stroke-width="3"/>
<text fill="black" xml:space="preserve" style="white-space: pre" font-family="Inter" font-size="50" font-weight="bold" letter-spacing="0em"><tspan x="973.198" y="351.826">6</tspan></text>
<rect x="805.972" y="130.549" width="117" height="177" transform="rotate(-30 805.972 130.549)" stroke="black" stroke-width="3"/>
<text fill="black" xml:space="preserve" style="white-space: pre" font-family="Inter" font-size="50" font-weight="bold" letter-spacing="0em"><tspan x="997.872" y="511.729">7</tspan></text>
<rect x="895.972" y="286.434" width="117" height="177" transform="rotate(-30 895.972 286.434)" stroke="black" stroke-width="3"/>
<text fill="black" xml:space="preserve" style="white-space: pre" font-family="Inter" font-size="50" font-weight="bold" letter-spacing="0em"><tspan x="869.25" y="411.826">8</tspan></text>
<rect x="792.049" y="346.434" width="117" height="177" transform="rotate(-30 792.049 346.434)" stroke="black" stroke-width="3"/>
<rect x="702.049" y="190.549" width="117" height="177" transform="rotate(-30 702.049 190.549)" stroke="black" stroke-width="3"/>
<text fill="black" xml:space="preserve" style="white-space: pre" font-family="Inter" font-size="50" font-weight="bold" letter-spacing="0em"><tspan x="393.698" y="805.441">9</tspan></text>
<rect x="88.0298" y="1050.14" width="117" height="177" transform="rotate(-60 88.0298 1050.14)" stroke="black" stroke-width="3"/>
<text fill="black" xml:space="preserve" style="white-space: pre" font-family="Inter" font-size="50" font-weight="bold" letter-spacing="0em"><tspan x="291.258" y="961.326">10</tspan></text>
<rect x="404.472" y="682.049" width="117" height="177" transform="rotate(30 404.472 682.049)" stroke="black" stroke-width="3"/>
<text fill="black" xml:space="preserve" style="white-space: pre" font-family="Inter" font-size="50" font-weight="bold" letter-spacing="0em"><tspan x="169.277" y="1061.23">11</tspan></text>
<rect x="314.472" y="837.934" width="117" height="177" transform="rotate(30 314.472 837.934)" stroke="black" stroke-width="3"/>
<text fill="black" xml:space="preserve" style="white-space: pre" font-family="Inter" font-size="50" font-weight="bold" letter-spacing="0em"><tspan x="188.3" y="901.326">12</tspan></text>
<rect x="210.549" y="777.934" width="117" height="177" transform="rotate(30 210.549 777.934)" stroke="black" stroke-width="3"/>
<rect x="300.549" y="622.049" width="117" height="177" transform="rotate(30 300.549 622.049)" stroke="black" stroke-width="3"/>
<rect x="88.0298" y="500.143" width="117" height="177" transform="rotate(-60 88.0298 500.143)" stroke="black" stroke-width="3"/>
<text fill="black" xml:space="preserve" style="white-space: pre" font-family="Inter" font-size="50" font-weight="bold" letter-spacing="0em"><tspan x="303.258" y="411.326">4</tspan></text>
<rect x="404.472" y="132.049" width="117" height="177" transform="rotate(30 404.472 132.049)" stroke="black" stroke-width="3"/>
<text fill="black" xml:space="preserve" style="white-space: pre" font-family="Inter" font-size="50" font-weight="bold" letter-spacing="0em"><tspan x="177.261" y="511.229">3</tspan></text>
<rect x="314.472" y="287.934" width="117" height="177" transform="rotate(30 314.472 287.934)" stroke="black" stroke-width="3"/>
<text fill="black" xml:space="preserve" style="white-space: pre" font-family="Inter" font-size="50" font-weight="bold" letter-spacing="0em"><tspan x="200.531" y="351.326">2</tspan></text>
<rect x="210.549" y="227.934" width="117" height="177" transform="rotate(30 210.549 227.934)" stroke="black" stroke-width="3"/>
<text fill="black" xml:space="preserve" style="white-space: pre" font-family="Inter" font-size="50" font-weight="bold" letter-spacing="0em"><tspan x="294.547" y="195.441">1</tspan></text>
<rect x="300.549" y="72.049" width="117" height="177" transform="rotate(30 300.549 72.049)" stroke="black" stroke-width="3"/>
</svg>
